<?xml version="1.0" encoding="utf-8"?>
<!-- Generator: Adobe Illustrator 24.3.0, SVG Export Plug-In . SVG Version: 6.00 Build 0)  -->
<svg version="1.1" id="Capa_1" xmlns="http://www.w3.org/2000/svg" xmlns:xlink="http://www.w3.org/1999/xlink" x="0px" y="0px"
	 viewBox="0 0 512 512" style="enable-background:new 0 0 512 512;" xml:space="preserve">
<style type="text/css">
	.st0{fill:#FFFFFF;}
</style>
<g>
	<g>
		<path class="st0" d="M506.1,308.3c-0.9-2.5-57.2-150.7-57.5-151.4c-7.7-19.9-23.3-35.5-42.3-43.8c-0.2-0.6-7.7-19.9-7.9-20.4
			c-8.7-19.5-28.2-32.2-49.7-32.2c-24.2,0-45.6,16.2-52.2,39.4c-0.4,1.3-0.6,2.7-0.6,4.1v67.5h-80V104c0-1.4-0.2-2.8-0.6-4.1
			c-6.6-23.2-28-39.4-52.2-39.4c-23.8,0-43.3,15.5-50,32.8l-7.6,19.7c-19.9,8.7-35.1,24.9-42.5,44.4C2.1,318.1,6.8,305.7,5.9,308.3
			C2,319.6,0,331.4,0,343.5c0,59.6,48.4,108,108,108c53.4,0,97.9-39,106.5-90h83c8.6,51,53.1,90,106.5,90c59.6,0,108-48.4,108-108
			C512,331.4,510,319.6,506.1,308.3z M420.8,168.1c0.1,0.2,0.1,0.3,0.2,0.5l29.4,77.4c-41.5-19.8-91.7-11.2-124.4,22.9v-83.4
			c0-27,22-49,49-49C395.2,136.5,413.6,149.2,420.8,168.1z M296,289.5h-80v-88h80V289.5z M216,319.5h80v12h-80V319.5z M348.8,90.5
			c9.5,0,18.8,5.2,23,16.1c-17.2,0.7-33,7-45.7,17v-17.3C329.5,96.9,338.6,90.5,348.8,90.5z M163.2,90.5c10.2,0,19.3,6.4,22.8,15.8
			v17.3c-12.7-10.1-28.5-16.3-45.7-17C144.4,95.9,153.6,90.5,163.2,90.5z M91.2,168.1c7.2-18.9,25.6-31.6,45.8-31.6
			c27,0,49,22,49,49v83.4c-32.7-34.1-82.9-42.7-124.4-22.9C105.4,130.8,85.7,182.5,91.2,168.1z M108,421.5c-43,0-78-35-78-78
			c0-43.9,36-78,78-78c43,0,78,35,78,78S151,421.5,108,421.5z M404,421.5c-43,0-78-35-78-78s35-78,78-78c42.3,0,78,34.3,78,78
			C482,386.5,447,421.5,404,421.5z"/>
	</g>
</g>
</svg>
