<?xml version="1.0" encoding="utf-8"?>
<!-- Generator: Adobe Illustrator 23.0.3, SVG Export Plug-In . SVG Version: 6.00 Build 0)  -->
<svg version="1.1" id="Layer_1" xmlns="http://www.w3.org/2000/svg" xmlns:xlink="http://www.w3.org/1999/xlink" x="0px" y="0px"
	 viewBox="0 0 512 512" style="enable-background:new 0 0 512 512;" xml:space="preserve">
<style type="text/css">
	.st0{fill-rule:evenodd;clip-rule:evenodd;fill:#B3B2B3;}
</style>
<path class="st0" d="M453.8,378.6l-170.1,69.1c-13.6,5.3-28.3,8.3-43.7,8.3c-15.5,0-30.4-3-44-8.4L26.3,378.7
	C10.7,370.7,0,354.7,0,336V152v-32c0-8.8,7.2-16,16-16c8.8,0,16,7.2,16,16v13v19v181.7c0,5.8,3.2,10.7,7.8,13.5l163.4,69.1
	c0.4,0.1,0.7,0.2,1,0.4c11,4.7,23.1,7.2,35.9,7.2c12.6,0,24.7-2.5,35.7-7.2c0.4-0.2,0.7-0.2,1-0.4l163.5-69.2
	c4.6-2.8,7.8-7.8,7.8-13.5V216v-19v-13c0-8.8,7.2-16,16-16c8.8,0,16,7.2,16,16v32v120C480,354.6,469.3,370.6,453.8,378.6
	L453.8,378.6z M464,136c-8.8,0-16-7.2-16-16c0-8.8,7.2-16,16-16c8.8,0,16,7.2,16,16C480,128.8,472.8,136,464,136L464,136z
	 M386.6,332.3l-75.5,31.4v0c-2,0.9-4.3,1.4-6.7,1.4c-9.1,0-16.4-7.4-16.4-16.4c0-7,4.4-13,10.6-15.3l76.9-33.6c5-2.7,8.5-7.9,8.5-14
	V76.3c0-4.4-3.6-8-8-8c-1.2,0-2.3,0.3-3.3,0.7v0l-108.2,47.4c-5,2.7-8.5,7.9-8.5,14V320v32c0,17.7-14.3,32-32,32
	c-4.4,0-8.6-0.9-12.5-2.5L93.3,332.2C76.1,324.9,64,307.9,64,288V64c0-17.7,14.3-32,32-32c4.4,0,8.5,0.9,12.3,2.5l73.4,30.6
	c6,2.5,10.3,8.5,10.3,15.4c0,9.3-7.5,16.8-16.7,16.8c-2.8,0-5.4-0.8-7.7-2l-60.3-26.4c0,0,0,0,0,0c-1-0.4-2.1-0.7-3.3-0.7
	c-4.4,0-8,3.6-8,8v209.5c0,6.1,3.5,11.3,8.5,14l108.2,47.3c0,0,0,0,0,0c1,0.4,2.1,0.7,3.3,0.7c4.4,0,8-3.6,8-8V136v-8
	c0-19.9,12.1-37,29.4-44.2l118.3-49.3c3.8-1.6,7.9-2.5,12.3-2.5c17.7,0,32,14.3,32,32v224C416,307.9,403.9,325,386.6,332.3
	L386.6,332.3z"/>
</svg>
