<?xml version="1.0" encoding="utf-8"?>
<!-- Generator: Adobe Illustrator 23.0.3, SVG Export Plug-In . SVG Version: 6.00 Build 0)  -->
<svg version="1.1" id="Layer_1" xmlns="http://www.w3.org/2000/svg" xmlns:xlink="http://www.w3.org/1999/xlink" x="0px" y="0px"
	 viewBox="0 0 512 512" style="enable-background:new 0 0 512 512;" xml:space="preserve">
<style type="text/css">
	.st0{fill:#3170B7;}
	.st1{fill:#3370B7;}
</style>
<g>
	<g>
		<g>
			<path class="st0" d="M410.4,113.4l-117.8,61.3h-146c-24.6,0.1-45.4,12.7-56,32.1l-17.1-32.7c-8.1-15.6-2.1-35,13.6-43.2
				L320.2,9.6c15.7-8.2,35.1-2.1,43.2,13.6L410.4,113.4z"/>
			<path class="st0" d="M442.1,174.8c-0.7-0.1-1.5-0.1-2.3-0.1h-64l52.3-27.2l12.6,24.2C441.2,172.7,441.8,173.7,442.1,174.8z"/>
		</g>
	</g>
	<path class="st1" d="M389,414.6c-9.7,0-18.5-4.2-24.5-10.9c-6.1,6.6-14.9,10.9-24.6,10.9c-18.4,0-33.3-14.9-33.3-33.4
		c0-18.4,14.9-33.3,33.3-33.3c9.7,0,18.5,4.2,24.6,10.9c6-6.6,14.8-10.9,24.5-10.9c18.4,0,33.3,14.9,33.3,33.3
		C422.3,399.7,407.4,414.6,389,414.6z"/>
	<rect x="157.7" y="253.8" class="st0" width="51.4" height="14.3"/>
	<rect x="157.6" y="293" class="st0" width="212.6" height="14.5"/>
	<rect x="244.9" y="252.7" class="st0" width="125.4" height="14.6"/>
	<path class="st0" d="M439.8,204.2H247.1c-33.5,0-67,0-100.4,0.1c-19.5,0-33.6,13-34.3,31.6c-0.2,6.4-0.1,12.6-0.1,19v30.2h5
		l6.5,1.1c2.3,0.4,4.4,0.7,6.3,1.2v-23.7c0-3-0.1-6-0.1-8.9c-0.1-6.4-0.1-12.3,0.1-18.2c0.4-9,6.7-14.5,16.6-14.5
		c33.4-0.1,66.9-0.1,100.4-0.1h150.8c14,0,27.9,0,41.9,0.1c11.8,0,17.3,5.6,17.4,17.6v186.5c-0.1,12.8-5.5,18.2-18.1,18.2H213.2
		l-0.1,17.8H439c22.4,0,35.7-13.4,35.8-36V239.6C474.8,217.8,461.3,204.3,439.8,204.2z"/>
	<path class="st0" d="M187.3,488.3v-51.7c0-9.4,0.1-19-0.1-28.4c-0.2-6.4-3.7-10.3-9.9-11.2c-1.7-0.3-2.2-0.9-2.2-2.6
		c0-9.1,0.1-18.4-0.4-27.5c-0.4-9-3.6-17.4-8.3-25c-9.6-15.2-23.2-25.1-40.9-29.1c-1.8-0.4-3.8-0.7-5.7-1c-1.8-0.2-3.8-0.3-5.7-0.8
		h-3.5c-5,0.8-9.5,1.2-14,2.4c-23.4,6.8-39,21.8-45.6,45.5c-2.2,8.1-1.7,16.5-1.7,24.9v12.9c-1.2,0.2-2.2,0.4-3.2,0.6
		c-5.4,1.1-8.8,5.3-8.8,10.8v57.8c0,8.8,0.1,17.7,0,26.5c-0.1,7.7,1.7,11,8.2,13.7h133.9c3.9-1.5,6.6-4.1,7.5-8.3
		C187.5,494.7,187.3,491.4,187.3,488.3z M123.6,455.8c-2.1,1.5-2.7,3.1-2.7,5.5c0.2,5.5,0.2,11,0.1,16.4c-0.1,4.6-2.3,7.7-6.1,8.9
		c-3.5,1.2-6.9,0.4-9.3-2.5c-0.9-1.3-1.7-2.9-1.9-4.6c-0.3-3.5-0.1-7.1-0.1-10.7h-0.2V466c0.2-4.9-0.4-8.8-5-12.6
		c-7-5.8-7.8-15.5-3.6-23.2c4.1-7.3,12.9-11.8,21.1-9.9c8.1,1.8,13.7,6.9,15.5,15.1C133.4,443.7,130.5,450.7,123.6,455.8z
		 M151.2,394.1c0,2.1-0.7,2.8-2.7,2.8c-12.2-0.1-24.3,0-36.4,0H76.2c-3,0-3.2-0.1-3.2-3.1c0-7.4-0.3-14.8,0.1-22.2
		c0.7-12.3,6.6-21.8,16.3-29c18.4-13.6,45.1-7.9,56.4,11.9c3.6,6.2,5.5,12.7,5.4,19.8C151.1,380.9,151.1,387.5,151.2,394.1z"/>
</g>
</svg>
