<svg xmlns="http://www.w3.org/2000/svg" xmlns:xlink="http://www.w3.org/1999/xlink" version="1.1" x="0px" y="0px" viewBox="0 0 512 512" enable-background="new 0 0 512 512" xml:space="preserve"><g><g><g><path fill="#000000" d="M410.447,113.423L292.68,174.706H146.635c-24.587,0.074-45.408,12.7-56.04,32.118l-17.056-32.709     c-8.122-15.58-2.068-34.998,13.585-43.194L320.221,9.611c15.653-8.196,35.072-2.068,43.194,13.586L410.447,113.423z"></path><path fill="#000000" d="M442.122,174.78c-0.738-0.074-1.55-0.074-2.289-0.074h-64.015l52.275-27.245l12.625,24.218     C441.236,172.712,441.753,173.746,442.122,174.78z"></path></g></g><path fill="#000000" d="M388.961,414.623c-9.723,0-18.498-4.209-24.546-10.85c-6.107,6.641-14.881,10.85-24.605,10.85   c-18.38,0-33.32-14.941-33.32-33.379c0-18.379,14.941-33.32,33.32-33.32c9.723,0,18.498,4.21,24.605,10.85   c6.048-6.64,14.822-10.85,24.546-10.85c18.439,0,33.32,14.941,33.32,33.32C422.281,399.683,407.4,414.623,388.961,414.623z"></path><rect x="157.712" y="253.776" fill="#000000" width="51.354" height="14.342"></rect><rect x="157.596" y="293.043" fill="#000000" width="212.587" height="14.516"></rect><rect x="244.863" y="252.735" fill="#000000" width="125.436" height="14.573"></rect><path fill="#000000" d="M439.833,204.219H247.124c-33.521,0-66.968,0-100.416,0.074c-19.492,0-33.595,12.995-34.333,31.602   c-0.222,6.35-0.148,12.552-0.074,19.049v30.199h5.021l6.498,1.107c2.289,0.37,4.356,0.739,6.276,1.182V263.73   c0-3.027-0.074-5.981-0.074-8.934c-0.073-6.35-0.073-12.331,0.074-18.237c0.37-9.008,6.719-14.545,16.613-14.545   c33.447-0.074,66.894-0.074,100.416-0.074h150.771c13.955,0,27.91,0,41.864,0.074c11.814,0,17.278,5.611,17.351,17.573v186.507   c-0.074,12.774-5.464,18.164-18.09,18.164H213.16l-0.074,17.794h225.935c22.372,0,35.736-13.438,35.81-35.958V239.586   C474.757,217.805,461.319,204.293,439.833,204.219z"></path><path fill="#000000" d="M187.27,488.267v-51.656c0-9.438,0.102-18.978-0.101-28.416c-0.203-6.394-3.654-10.25-9.946-11.164   c-1.725-0.304-2.232-0.913-2.232-2.639c0-9.133,0.102-18.369-0.406-27.502c-0.406-9.032-3.552-17.354-8.321-24.966   c-9.641-15.223-23.241-25.067-40.899-29.126c-1.827-0.406-3.755-0.71-5.683-1.015c-1.827-0.203-3.755-0.305-5.683-0.812h-3.451   c-4.973,0.812-9.54,1.218-14.004,2.436c-23.444,6.799-38.971,21.82-45.568,45.465c-2.232,8.119-1.725,16.542-1.725,24.864v12.889   c-1.218,0.203-2.232,0.406-3.248,0.609c-5.378,1.116-8.829,5.277-8.829,10.757v57.847c0,8.829,0.102,17.658,0,26.488   c-0.102,7.713,1.725,10.961,8.22,13.7h133.859c3.857-1.522,6.597-4.059,7.51-8.322C187.473,494.661,187.27,491.413,187.27,488.267z    M123.639,455.792c-2.131,1.523-2.74,3.147-2.74,5.481c0.203,5.48,0.203,10.961,0.102,16.441c-0.102,4.567-2.334,7.713-6.089,8.931   c-3.451,1.218-6.902,0.406-9.337-2.537c-0.913-1.319-1.725-2.943-1.928-4.567c-0.304-3.451-0.102-7.104-0.102-10.656h-0.203v-2.842   c0.203-4.871-0.406-8.829-4.973-12.584c-7.003-5.785-7.815-15.527-3.552-23.24c4.06-7.307,12.889-11.773,21.109-9.946   c8.119,1.827,13.7,6.902,15.527,15.122C133.381,443.716,130.54,450.718,123.639,455.792z M151.243,394.089   c0,2.131-0.71,2.841-2.74,2.841c-12.178-0.102-24.255,0-36.434,0H76.245c-3.045,0-3.248-0.102-3.248-3.146   c0-7.408-0.305-14.816,0.101-22.225c0.71-12.279,6.597-21.819,16.34-29.025c18.369-13.599,45.06-7.916,56.426,11.874   c3.552,6.191,5.48,12.686,5.378,19.79C151.141,380.896,151.141,387.492,151.243,394.089z"></path></g></svg>