<?xml version="1.0" encoding="utf-8"?>
<!-- Generator: Adobe Illustrator 23.0.3, SVG Export Plug-In . SVG Version: 6.00 Build 0)  -->
<svg version="1.1" id="Layer_1" xmlns="http://www.w3.org/2000/svg" xmlns:xlink="http://www.w3.org/1999/xlink" x="0px" y="0px"
	 viewBox="0 0 512 512" style="enable-background:new 0 0 512 512;" xml:space="preserve">
<style type="text/css">
	.st0{fill:#FFFFFF;}
</style>
<g>
	<g>
		<path class="st0" d="M472.2,201.7c9.3-9,12.5-22.3,8.5-34.6c-4-12.3-14.4-21.1-27.3-23l-112-16.3c-2.2-0.3-4.1-1.7-5.1-3.7
			L286.3,22.6C280.6,11,268.9,3.8,256,3.8c-12.9,0-24.5,7.2-30.3,18.8l-50.1,101.5c-1,2-2.9,3.4-5.1,3.7l-112,16.3
			c-12.8,1.9-23.3,10.7-27.3,23s-0.7,25.6,8.5,34.6l81.1,79c1.6,1.6,2.3,3.8,1.9,6l-19.1,111.6c-2.2,12.8,3,25.4,13.4,33
			c10.5,7.6,24.1,8.6,35.6,2.6l100.2-52.7c2-1,4.3-1,6.3,0l100.2,52.7c5,2.6,10.4,3.9,15.7,3.9c7,0,13.9-2.2,19.8-6.5
			c10.5-7.6,15.6-20.3,13.4-33l-19.1-111.6c-0.4-2.2,0.4-4.4,1.9-6L472.2,201.7z M362.6,291.3l19.1,111.6c0.6,3.7-1.7,5.9-2.7,6.6
			c-1,0.7-3.8,2.3-7.1,0.5l-100.2-52.7c-4.9-2.6-10.3-3.9-15.7-3.9s-10.8,1.3-15.7,3.9L140.1,410c-3.4,1.8-6.1,0.2-7.1-0.5
			s-3.3-2.9-2.7-6.6l19.1-111.6c1.9-11-1.8-22.1-9.7-29.9l-81.1-79c-2.7-2.6-2.1-5.7-1.7-6.9c0.4-1.2,1.7-4.1,5.5-4.6l112-16.3
			c11-1.6,20.5-8.5,25.4-18.5l50.1-101.5c1.7-3.4,4.8-3.8,6.1-3.8c1.3,0,4.4,0.4,6.1,3.8v0l50.1,101.5c4.9,10,14.4,16.9,25.4,18.5
			l112,16.3c3.7,0.5,5.1,3.4,5.5,4.6c0.4,1.2,1,4.3-1.7,6.9l-81.1,79C364.3,269.1,360.7,280.3,362.6,291.3z"/>
	</g>
</g>
<g>
	<g>
		<path class="st0" d="M413.8,22.6c-6-4.4-14.5-3-18.9,3l-14.3,19.7c-4.4,6-3,14.5,3,18.9c2.4,1.7,5.2,2.6,7.9,2.6
			c4.2,0,8.3-1.9,10.9-5.6l14.3-19.7C421.2,35.5,419.8,27,413.8,22.6z"/>
	</g>
</g>
<g>
	<g>
		<path class="st0" d="M131.4,45.3L117,25.5c-4.4-6-12.8-7.4-18.9-3c-6,4.4-7.4,12.8-3,18.9l14.3,19.7c2.6,3.6,6.8,5.6,10.9,5.6
			c2.8,0,5.5-0.8,7.9-2.6C134.4,59.7,135.7,51.3,131.4,45.3z"/>
	</g>
</g>
<g>
	<g>
		<path class="st0" d="M49.6,306.8c-2.3-7.1-9.9-11-17-8.7l-23.2,7.5c-7.1,2.3-11,9.9-8.7,17c1.9,5.7,7.1,9.3,12.8,9.3
			c1.4,0,2.8-0.2,4.2-0.7l23.2-7.5C48,321.5,51.9,313.9,49.6,306.8z"/>
	</g>
</g>
<g>
	<g>
		<path class="st0" d="M256,456.8c-7.5,0-13.5,6-13.5,13.5v24.4c0,7.5,6,13.5,13.5,13.5c7.5,0,13.5-6,13.5-13.5v-24.4
			C269.5,462.8,263.5,456.8,256,456.8z"/>
	</g>
</g>
<g>
	<g>
		<path class="st0" d="M502.7,305.7l-23.2-7.5c-7.1-2.3-14.7,1.6-17,8.7c-2.3,7.1,1.6,14.7,8.7,17l23.2,7.5c1.4,0.5,2.8,0.7,4.2,0.7
			c5.7,0,11-3.6,12.8-9.3C513.6,315.6,509.8,308,502.7,305.7z"/>
	</g>
</g>
</svg>
