<?xml version="1.0" encoding="utf-8"?>
<!-- Generator: Adobe Illustrator 23.0.3, SVG Export Plug-In . SVG Version: 6.00 Build 0)  -->
<svg version="1.1" id="Layer_1" xmlns="http://www.w3.org/2000/svg" xmlns:xlink="http://www.w3.org/1999/xlink" x="0px" y="0px"
	 viewBox="0 0 100 100" style="enable-background:new 0 0 100 100;" xml:space="preserve">
<style type="text/css">
	.st0{fill:#6F7D88;}
</style>
<path class="st0" d="M84.2,47.8c-1.2,1.6-4.8,1.6-7.4,1.4c-3.8-0.3-4.3,0.1-5.3-2.4c-1-2.3-1.2-6.9-2.4-9.3c-0.5-1.1-1.9-2.6-3-3.2
	c-3.2-1.8-11.6-2.2-16-2.1s-12.8,0.3-16,2.1c-1.2,0.7-2.5,2.2-3,3.2c-1.1,2.4-1.4,7-2.4,9.3c-1,2.5-1.5,2.2-5.3,2.4
	c-2.7,0.2-6.2,0.2-7.4-1.4c-1.6-2.1-0.2-11.1,0.9-13.3s11.7-8.9,33.2-8.9s32.1,6.7,33.2,8.9S85.8,45.7,84.2,47.8z M63.3,42.2v-6.1
	h-6.6l-0.3,5.3l-12.8-0.1l-0.2-5.2h-6.5l-0.2,0.3v6l-13,13.1L23,69.1h54l-0.5-13.6L63.3,42.2z"/>
</svg>
