<?xml version="1.0" encoding="utf-8"?>
<!-- Generator: Adobe Illustrator 23.0.3, SVG Export Plug-In . SVG Version: 6.00 Build 0)  -->
<svg version="1.1" id="Layer_1" xmlns="http://www.w3.org/2000/svg" xmlns:xlink="http://www.w3.org/1999/xlink" x="0px" y="0px"
	 viewBox="0 0 100 100" style="enable-background:new 0 0 100 100;" xml:space="preserve">
<style type="text/css">
	.st0{fill-rule:evenodd;clip-rule:evenodd;fill:#6F7D88;}
	.st1{fill:#6F7D88;}
</style>
<g>
	<g>
		<path class="st0" d="M92.6,18.5H7.4c-3.3,0-6,3.2-6,7.2v48.6c0,4,2.7,7.2,6,7.2h85.3c3.3,0,6-3.2,6-7.2V25.7
			C98.6,21.7,95.9,18.5,92.6,18.5z M74,68.3c0,3-2,5.4-4.5,5.4H13.9c-2.5,0-4.5-2.4-4.5-5.4V31.7c0-3,2-5.4,4.5-5.4h55.6
			c2.5,0,4.5,2.4,4.5,5.4V68.3z M86.3,59c-4.2,0-7.6-3.4-7.6-7.6s3.4-7.6,7.6-7.6c4.2,0,7.6,3.4,7.6,7.6S90.5,59,86.3,59z"/>
	</g>
	<polygon class="st1" points="54.4,33.2 38.3,53.7 31.4,49.3 26.1,55.6 39.8,67.1 61.3,38.2 	"/>
</g>
</svg>
