<?xml version="1.0" encoding="utf-8"?>
<!-- Generator: Adobe Illustrator 23.0.3, SVG Export Plug-In . SVG Version: 6.00 Build 0)  -->
<svg version="1.1" id="Layer_1" xmlns="http://www.w3.org/2000/svg" xmlns:xlink="http://www.w3.org/1999/xlink" x="0px" y="0px"
	 viewBox="0 0 512 512" style="enable-background:new 0 0 512 512;" xml:space="preserve">
<style type="text/css">
	.st0{fill-rule:evenodd;clip-rule:evenodd;fill:#B7B7B8;}
</style>
<path class="st0" d="M464,288c-8.8,0-16,7.2-16,16v8c0,22.1-17.9,40-40,40c-8.7,0-16.8-2.8-23.4-7.6c0,0,0,0,0,0l-38.1-28.5
	c-0.4-0.3-0.8-0.6-1.2-1c-15.4-11.7-25.3-30.2-25.3-51v-32c0-22.1-17.9-40-40-40H72c-22.1,0-40,17.9-40,40v112
	c0,17.5,11.3,32.2,27,37.7c0.6,1.5,2.2,2.3,5,2.3c11.8,0,32,17.9,32,40v16c0,4.4,3.6,8,8,8c1.7,0,3.3-0.5,4.6-1.4c0,0,0,0,0,0
	l67.3-50.5c10-7.6,22.6-12.1,36.2-12.1h60c8.8,0,16,7.2,16,16c0,8.8-7.2,16-16,16h-56c-9.1,0-17.6,3.1-24.3,8.3l-64.3,48.2h0
	c-6.6,4.8-14.7,7.5-23.4,7.5c-22.1,0-40-17.9-40-40v-8c0-8.8-7.2-16-16-16c-1.8,0-2.1-1-1.7-2.5C19.6,405.8,0,381.2,0,352V224
	c0-35.4,28.6-64,64-64h224c35.3,0,64,28.6,64,64v40c0,10.5,5,19.8,12.8,25.6l38.6,29c0,0,0,0,0,0c1.3,0.9,2.9,1.4,4.6,1.4
	c4.4,0,8-3.6,8-8v-16c0-22.1,20.2-40,32-40c15.4,0,32-17.9,32-40V104c0-22.1-17.9-40-40-40H232c-22.1,0-40,17.9-40,40v8
	c0,8.8-7.2,16-16,16c-8.8,0-16-7.2-16-16V96c0-35.3,28.7-64,64-64h224c35.4,0,64,28.6,64,64v128C512,259.3,486.7,288,464,288
	L464,288z M336,352c8.8,0,16,7.2,16,16c0,8.8-7.2,16-16,16c-8.8,0-16-7.2-16-16C320,359.2,327.2,352,336,352L336,352z"/>
</svg>
