<svg xmlns="http://www.w3.org/2000/svg" xmlns:xlink="http://www.w3.org/1999/xlink" version="1.1" x="0px" y="0px" viewBox="0 0 512 512" enable-background="new 0 0 512 512" xml:space="preserve"><path fill-rule="evenodd" clip-rule="evenodd" fill="#000000" d="M464.008,288.008c-8.836,0-16.008,7.164-16.008,15.984V312  c0,22.094-17.915,40-39.993,40c-8.742,0-16.82-2.797-23.398-7.555c-0.016,0,0,0-0.016,0l-38.062-28.539  c-0.445-0.344-0.797-0.609-1.242-0.953c-15.375-11.672-25.29-30.156-25.29-50.961v-31.984c0-22.094-17.906-40.016-40-40.016H72.004  c-22.094,0-40.016,17.922-40.016,40.016v112c0,17.516,11.336,32.227,27.032,37.656c0.629,1.477,2.176,2.344,4.973,2.344  c11.848,0,32.008,17.898,32.008,39.992v16.008c0,4.406,3.578,7.992,7.992,7.992c1.695,0,3.258-0.531,4.562-1.43  c0.02,0,0,0.016,0,0.016l67.286-50.461c10.047-7.609,22.57-12.117,36.164-12.117h59.993c8.836,0,16,7.156,16,16  c0,8.82-7.164,15.984-16,15.984h-56.004c-9.148,0-17.598,3.07-24.32,8.266l-64.262,48.195h-0.016  c-6.586,4.75-14.664,7.547-23.402,7.547c-22.094,0-40-17.898-40-39.992v-8.016c0-8.82-7.16-16-16-16  c-1.766,0-2.137-1.031-1.68-2.547C19.582,405.773,0,381.203,0,352V224c0-35.352,28.645-63.992,63.993-63.992h224.005  c35.345,0,64.009,28.641,64.009,63.992v39.992c0,10.492,5.039,19.805,12.828,25.641l38.602,28.953c0.023,0-0.016-0.016,0-0.016  c1.297,0.898,2.875,1.422,4.57,1.422c4.414,0,7.992-3.578,7.992-7.992v-16c0-22.094,20.156-40,32.001-40  c15.43,0,31.992-17.898,31.992-39.992v-112c0-22.102-17.898-40-39.993-40H231.994c-22.094,0-39.997,17.898-39.997,40V112  c0,8.836-7.16,16-16.004,16c-8.84,0-16-7.164-16-16V95.992c0-35.344,28.661-63.992,64.009-63.992H448c35.352,0,64,28.648,64,63.992  V224C512,259.344,486.68,288.008,464.008,288.008L464.008,288.008z M335.999,352c8.828,0,16.008,7.164,16.008,16  c0,8.844-7.18,16.008-16.008,16.008c-8.836,0-16.001-7.164-16.001-16.008C319.998,359.164,327.163,352,335.999,352L335.999,352z"></path></svg>