<?xml version="1.0" encoding="utf-8"?>
<!-- Generator: Adobe Illustrator 23.0.3, SVG Export Plug-In . SVG Version: 6.00 Build 0)  -->
<svg version="1.1" id="Layer_1" xmlns="http://www.w3.org/2000/svg" xmlns:xlink="http://www.w3.org/1999/xlink" x="0px" y="0px"
	 viewBox="0 0 512 512" style="enable-background:new 0 0 512 512;" xml:space="preserve">
<style type="text/css">
	.st0{fill:#FFFFFF;}
</style>
<g>
	<g>
		<path class="st0" d="M492.6,400.6L392.2,300.2c-12-12-31.5-12-43.4,0l-26.1,26.1c-8.2,8.2-10.8,19.8-7.8,30.2l-9.8,9.8
			c0,0,0,0,0,0c-7,7-50.5-3.7-103.1-56.4c-52.6-52.6-63.4-96.1-56.4-103.1c0,0,0,0,0,0l9.9-9.9c2.8,0.8,5.7,1.2,8.5,1.2
			c7.9,0,15.7-3,21.7-9l26.1-26.1c12-12,12-31.5,0-43.4L111.4,19.4c-5.8-5.8-13.5-9-21.7-9c-8.2,0-15.9,3.2-21.7,9L41.9,45.5
			c-8.2,8.2-10.8,19.8-7.8,30.2c0,0-8.3,8.4-8.8,9c-27.8,30.8-33,79.4-14.6,137.5c18,56.9,56.9,117.1,109.4,169.6
			c52.5,52.5,112.7,91.3,169.6,109.4c22.8,7.2,44.2,10.8,63.6,10.8c31.8,0,58.3-9.6,77.4-28.7l5.5-5.5c2.7,0.8,5.6,1.2,8.5,1.2
			c8.2,0,15.9-3.2,21.7-9l26.1-26.1C504.5,432,504.5,412.5,492.6,400.6z M89.7,41.2L190,141.5L164,167.6c0,0,0,0,0,0l-0.4-0.4
			l-49.8-49.8L63.6,67.2L89.7,41.2z M409,461.6C409,461.6,409,461.6,409,461.6c-22.1,22.1-61.2,25.7-110,10.3
			c-52.3-16.6-108.1-52.7-157.2-101.8C92.8,321,56.7,265.2,40.1,212.9c-15.5-48.8-11.8-87.9,10.3-110l0,0l2.8-2.8l77.9,77.9
			l-7.1,7.1c0,0,0,0,0,0c-29.6,29.6,6,96.1,56.4,146.6c37.7,37.7,84.5,67.1,118.1,67.1c11.3,0,21.1-3.3,28.5-10.8c0,0,0,0,0,0
			l7.1-7.1l77.9,77.9L409,461.6z M444.8,448.4L344.4,348l26.1-26.1l100.3,100.3C470.8,422.3,444.8,448.4,444.8,448.4z"/>
	</g>
</g>
<g>
	<g>
		<path class="st0" d="M388.8,123.2c-29.2-29.2-68-45.3-109.3-45.3c-8.5,0-15.4,6.9-15.4,15.4s6.9,15.4,15.4,15.4
			c33.1,0,64.2,12.9,87.6,36.3c23.4,23.4,36.3,54.5,36.3,87.6c0,8.5,6.9,15.4,15.4,15.4c8.5,0,15.4-6.9,15.4-15.4
			C434.1,191.2,418,152.4,388.8,123.2z"/>
	</g>
</g>
<g>
	<g>
		<path class="st0" d="M443.9,68.1C400,24.2,341.6,0,279.5,0c-8.5,0-15.4,6.9-15.4,15.4c0,8.5,6.9,15.4,15.4,15.4
			c53.9,0,104.6,21,142.7,59.1c38.1,38.1,59.1,88.8,59.1,142.7c0,8.5,6.9,15.4,15.4,15.4c8.5,0,15.4-6.9,15.4-15.4
			C512,170.4,487.8,112,443.9,68.1z"/>
	</g>
</g>
<g>
	<g>
		<path class="st0" d="M333.7,178.3c-14.7-14.7-33.5-22.5-54.3-22.5c0,0,0,0,0,0c-8.5,0-15.4,6.9-15.4,15.4
			c0,8.5,6.9,15.4,15.4,15.4c0,0,0,0,0,0c12.6,0,23.6,4.5,32.5,13.5c8.8,8.8,13.5,20.1,13.5,32.5c0,8.5,6.9,15.4,15.4,15.4h0
			c8.5,0,15.4-6.9,15.4-15.4C356.2,211.7,348.4,193,333.7,178.3z"/>
	</g>
</g>
</svg>
